<svg width="1500" height="500" viewBox="0 0 1500 500" xmlns="http://www.w3.org/2000/svg">
  <defs>
    <linearGradient id="g" x1="0" y1="0" x2="1" y2="1">
      <stop offset="0%" stop-color="#6fbcf0"/>
      <stop offset="45%" stop-color="#4da2ff"/>
      <stop offset="100%" stop-color="#a78bfa"/>
    </linearGradient>
    <radialGradient id="glowA" cx="50%" cy="50%" r="50%">
      <stop offset="0%" stop-color="#4da2ff" stop-opacity="0.40"/>
      <stop offset="70%" stop-color="#4da2ff" stop-opacity="0"/>
    </radialGradient>
    <radialGradient id="glowB" cx="50%" cy="50%" r="50%">
      <stop offset="0%" stop-color="#a78bfa" stop-opacity="0.35"/>
      <stop offset="70%" stop-color="#a78bfa" stop-opacity="0"/>
    </radialGradient>
    <radialGradient id="glowC" cx="50%" cy="50%" r="50%">
      <stop offset="0%" stop-color="#2dd4bf" stop-opacity="0.22"/>
      <stop offset="70%" stop-color="#2dd4bf" stop-opacity="0"/>
    </radialGradient>
  </defs>

  <rect width="1500" height="500" fill="#05060a"/>
  <circle cx="420" cy="120" r="340" fill="url(#glowA)"/>
  <circle cx="1120" cy="400" r="380" fill="url(#glowB)"/>
  <circle cx="760" cy="520" r="320" fill="url(#glowC)"/>

  <!-- wave mark, centered above the wordmark -->
  <g transform="translate(672,46) scale(0.17)" fill="none" stroke-linecap="round">
    <path d="M96 300 q56 -96 112 0 t112 0 t112 0" stroke="url(#g)" stroke-width="44"/>
    <path d="M96 224 q56 -96 112 0 t112 0 t112 0" stroke="url(#g)" stroke-width="30" opacity="0.55"/>
    <path d="M96 360 q56 -70 112 0 t112 0 t112 0" stroke="url(#g)" stroke-width="20" opacity="0.30"/>
  </g>

  <text x="750" y="270" text-anchor="middle" font-family="-apple-system, Helvetica, Arial, sans-serif"
        font-size="104" font-weight="700" letter-spacing="-2" fill="url(#g)">Squall</text>

  <text x="750" y="322" text-anchor="middle" font-family="-apple-system, Helvetica, Arial, sans-serif"
        font-size="30" font-weight="500" fill="#dbe3ee">Be the house on DeepBook Predict</text>

  <text x="750" y="366" text-anchor="middle" font-family="-apple-system, Helvetica, Arial, sans-serif"
        font-size="21" fill="#7e8aa0">Structured yield  ·  the first on-chain vol index on Sui  ·  live on testnet</text>
</svg>
